<?xml version="1.0" standalone="no"?>
<!DOCTYPE svg PUBLIC "-//W3C//DTD SVG 20010904//EN"
 "http://www.w3.org/TR/2001/REC-SVG-20010904/DTD/svg10.dtd">
<svg version="1.0" xmlns="http://www.w3.org/2000/svg"
 width="260.000000pt" height="260.000000pt" viewBox="0 0 260.000000 260.000000"
 preserveAspectRatio="xMidYMid meet">
<metadata>
Created by potrace 1.14, written by Peter Selinger 2001-2017
</metadata>
<g transform="translate(0.000000,260.000000) scale(0.100000,-0.100000)"
fill="#000000" stroke="none">
<path d="M870 2575 c-12 -32 -127 -423 -199 -675 -27 -96 -50 -168 -50 -159
-1 9 -12 22 -26 29 -14 7 -26 20 -26 29 -1 9 -5 3 -10 -14 -15 -56 3 274 26
480 10 85 -10 39 -58 -135 -26 -91 -55 -196 -66 -235 -11 -38 -20 -61 -20 -50
-1 16 -3 17 -10 6 -7 -11 -17 -12 -49 -4 -38 10 -41 9 -46 -11 -2 -11 -4 -4
-3 16 2 49 -10 58 -22 17 -5 -19 -10 -28 -10 -21 -1 8 -6 10 -13 5 -38 -23
-40 -17 -32 150 3 89 4 160 1 157 -3 -3 -26 -79 -52 -170 -70 -245 -74 -257
-74 -237 -1 20 -47 -29 -96 -102 l-30 -44 -3 -774 -2 -773 1300 0 1300 0 -1
481 c-1 281 -5 476 -10 468 -5 -8 -9 -9 -9 -4 0 6 4 15 9 20 5 6 6 19 2 29 -6
15 -10 9 -21 -28 -7 -25 -15 -45 -17 -42 -2 2 7 42 22 89 23 76 25 99 23 218
l-3 134 -39 -97 c-22 -54 -41 -96 -43 -95 -2 2 2 17 7 34 7 18 7 39 2 54 -9
24 -9 23 -17 -9 -4 -18 -9 -31 -11 -29 -3 3 20 100 51 217 56 212 56 212 53
344 l-3 131 -93 -255 c-51 -140 -90 -243 -87 -228 3 16 -2 39 -13 57 -20 36
-32 40 -32 9 0 -12 -2 -19 -5 -16 -7 7 37 274 79 478 20 96 35 179 33 184 -3
9 -36 -79 -144 -384 -52 -147 -73 -197 -58 -137 5 20 3 27 -7 27 -7 0 -25 14
-40 30 l-26 30 -7 -31 c-4 -17 -9 -28 -12 -26 -2 3 0 21 5 41 6 22 7 38 1 42
-5 3 -9 0 -9 -5 0 -17 -40 11 -41 29 -1 8 -5 4 -9 -10 -11 -35 -12 -12 -1 46
5 27 12 74 16 104 4 30 10 76 15 102 4 27 4 46 1 42 -3 -3 -32 -74 -64 -157
-32 -84 -55 -138 -52 -121 6 30 4 32 -47 53 -29 12 -61 26 -70 31 -13 8 -18 4
-23 -21 -4 -17 -9 -28 -12 -26 -2 3 5 36 16 74 35 119 62 225 58 229 -4 5
-103 -202 -120 -249 -5 -15 -11 -26 -13 -24 -3 2 0 16 5 31 9 23 9 25 -7 15
-11 -7 -29 -8 -52 -2 -34 9 -35 8 -47 -26 l-12 -36 6 35 c3 19 36 182 73 363
37 180 64 327 60 327 -3 0 -59 -154 -123 -342 -65 -189 -116 -333 -113 -320 3
17 1 21 -7 14 -17 -13 -87 -20 -87 -8 0 20 -14 -6 -21 -41 -15 -71 1 86 27
251 13 88 22 161 20 163 -2 3 -39 -98 -81 -224 -42 -125 -75 -217 -72 -203 l3
25 -45 -22 c-25 -12 -51 -23 -58 -23 -6 0 -14 -8 -16 -17 -2 -10 -3 -3 -1 15
4 41 -12 42 -21 1 -5 -21 -10 -27 -15 -19 -5 9 -13 -4 -23 -36 -16 -48 -16
-48 -11 -9 4 30 3 36 -5 25 -6 -8 -11 -26 -11 -39 0 -13 -3 -22 -6 -19 -3 4
-1 39 5 80 11 82 17 131 26 233 4 39 9 79 11 90 4 16 3 17 -5 5 -6 -8 -40
-107 -77 -220 -36 -113 -72 -223 -80 -245 -14 -40 -14 -40 -8 -5 3 19 2 30 -3
25 -30 -39 -132 -83 -144 -63 -4 7 -10 -4 -15 -28 -4 -21 -9 -34 -11 -28 -3 9
84 398 121 541 18 68 14 80 -10 27 -59 -137 -104 -251 -160 -404 -36 -96 -62
-160 -59 -142 5 24 3 32 -8 32 -9 0 -17 6 -20 13 -2 6 -7 -7 -12 -31 -4 -24
-9 -41 -11 -39 -3 3 11 98 31 213 63 376 124 768 120 772 -2 3 -9 -8 -15 -23z
m960 -761 c19 -7 46 -13 60 -14 14 0 47 -11 73 -25 26 -14 53 -23 59 -19 7 4
8 3 4 -4 -8 -13 68 -55 79 -44 3 4 5 0 3 -8 -2 -8 3 -14 10 -12 8 1 11 -2 8
-7 -4 -5 8 -20 25 -32 61 -43 167 -237 154 -279 -8 -27 -29 -32 -145 -36 -156
-6 -169 -2 -242 69 -76 74 -131 97 -232 97 -64 0 -93 -6 -170 -33 -43 -16
-117 -95 -155 -167 -31 -58 -35 -74 -39 -165 -11 -258 102 -406 329 -429 68
-8 162 10 221 40 42 22 88 76 88 105 0 40 -37 51 -139 44 -81 -6 -88 -5 -115
18 -28 23 -29 26 -30 118 -1 117 6 143 41 158 19 8 116 10 306 9 l279 -3 25
-30 c25 -29 26 -32 20 -135 -6 -105 -31 -227 -61 -291 -77 -165 -233 -291
-421 -340 -95 -25 -263 -25 -387 0 -93 19 -191 66 -287 138 l-33 26 8 -24 c4
-13 7 -71 6 -129 -1 -91 -4 -107 -21 -121 -29 -23 -145 -29 -503 -25 -313 3
-338 7 -338 42 0 30 41 34 380 34 215 0 348 4 361 10 29 16 49 64 49 117 0 67
8 90 33 97 21 5 20 7 -10 38 -93 96 -162 279 -170 449 -11 223 39 385 167 539
70 83 77 91 65 71 -4 -7 14 4 41 25 57 45 112 73 202 105 34 12 62 24 62 28 0
3 60 8 133 9 72 2 134 6 136 8 3 3 12 2 20 -2 9 -4 32 -13 51 -20z m-1550 6
c0 -5 18 -10 41 -10 24 0 38 4 34 10 -10 16 69 12 104 -6 69 -34 66 -15 63
-548 -3 -496 -1 -529 37 -541 10 -3 113 -6 230 -7 259 -3 244 6 249 -145 4
-106 -6 -156 -34 -167 -7 -3 -190 -6 -405 -7 l-392 -2 -19 23 c-17 21 -18 51
-20 424 -4 590 1 915 12 935 5 10 21 22 35 25 14 4 25 11 25 16 0 6 9 10 20
10 11 0 20 -4 20 -10z m997 -22 c-3 -8 -6 -5 -6 6 -1 11 2 17 5 13 3 -3 4 -12
1 -19z m840 -40 c-3 -8 -6 -5 -6 6 -1 11 2 17 5 13 3 -3 4 -12 1 -19z m-1990
-50 c-3 -8 -6 -5 -6 6 -1 11 2 17 5 13 3 -3 4 -12 1 -19z m420 -20 c-3 -7 -5
-2 -5 12 0 14 2 19 5 13 2 -7 2 -19 0 -25z m1630 -10 c-3 -8 -6 -5 -6 6 -1 11
2 17 5 13 3 -3 4 -12 1 -19z m-2060 -10 c-3 -8 -6 -5 -6 6 -1 11 2 17 5 13 3
-3 4 -12 1 -19z m538 -447 c-2 -302 -6 -405 -15 -416 -19 -22 -47 -18 -53 8
-3 12 -7 200 -8 417 -1 295 2 402 11 422 l12 26 28 -28 28 -28 -3 -401z m232
357 c-3 -8 -6 -5 -6 6 -1 11 2 17 5 13 3 -3 4 -12 1 -19z m-160 -10 c-3 -8 -6
-5 -6 6 -1 11 2 17 5 13 3 -3 4 -12 1 -19z m1625 -53 c3 3 11 -2 19 -12 12
-15 12 -16 -1 -9 -8 5 -1 -3 15 -17 17 -14 27 -28 23 -32 -4 -4 2 -25 13 -47
29 -57 23 -119 -14 -136 -38 -19 -300 -20 -322 -2 -28 23 3 30 110 24 155 -8
194 13 171 96 -5 22 -14 40 -18 40 -4 0 -5 6 -2 14 3 8 -2 28 -10 45 -20 38
-21 58 -3 42 8 -6 16 -9 19 -6z m-559 -87 l42 -23 -75 -6 c-150 -13 -230 -62
-284 -177 -31 -67 -36 -91 -43 -187 l-8 -110 -18 27 c-28 41 -42 148 -28 211
38 172 162 287 308 287 47 0 75 -6 106 -22z m708 -235 c-12 -20 -14 -14 -5 12
4 9 9 14 11 11 3 -2 0 -13 -6 -23z m-39 -128 c19 -60 -15 -283 -62 -405 -28
-71 -120 -191 -179 -233 -64 -46 -176 -107 -195 -107 -9 0 -24 -4 -34 -10 -58
-32 -325 -51 -383 -27 -19 8 -51 17 -73 21 -21 4 -36 9 -34 11 2 2 81 7 175
10 132 4 185 10 233 25 34 11 68 20 74 20 22 0 188 111 228 152 51 53 112 144
127 188 19 59 61 257 61 290 0 36 28 90 44 87 6 -1 14 -11 18 -22z m125 -339
c-1 -26 -5 -39 -9 -31 -7 11 0 75 7 75 2 0 3 -20 2 -44z m-7 -69 c0 -5 -4 -5
-10 -2 -5 3 -10 14 -10 23 0 15 2 15 10 2 5 -8 10 -19 10 -23z m-45 -127 c-38
-113 -38 -105 -3 32 12 48 26 84 30 80 4 -4 -8 -55 -27 -112z m-48 -162 c-3
-8 -6 -5 -6 6 -1 11 2 17 5 13 3 -3 4 -12 1 -19z"/>
<path d="M17 2119 c-9 -25 -17 -69 -16 -99 l1 -55 19 90 c22 103 20 128 -4 64z"/>
<path d="M475 30 c123 -23 285 -25 442 -5 65 8 143 16 173 18 30 2 -118 4
-330 4 l-385 1 100 -18z"/>
<path d="M1693 43 c43 -2 110 -2 150 0 40 1 5 3 -78 3 -82 0 -115 -2 -72 -3z"/>
</g>
</svg>
